<?xml version="1.0" standalone="no"?>
<!DOCTYPE svg PUBLIC "-//W3C//DTD SVG 20010904//EN"
 "http://www.w3.org/TR/2001/REC-SVG-20010904/DTD/svg10.dtd">
<svg version="1.0" xmlns="http://www.w3.org/2000/svg"
 width="500.000000pt" height="500.000000pt" viewBox="0 0 500.000000 500.000000"
 preserveAspectRatio="xMidYMid meet">
<metadata>
Created by potrace 1.14, written by Peter Selinger 2001-2017
</metadata>
<g transform="translate(0.000000,500.000000) scale(0.100000,-0.100000)"
fill="#000000" stroke="none">
<path d="M2310 4150 c-513 -72 -933 -334 -1204 -752 -320 -492 -352 -1112 -86
-1643 83 -165 173 -288 315 -430 186 -186 391 -315 634 -395 167 -56 294 -80
461 -87 282 -11 523 37 775 156 480 227 821 664 925 1186 11 55 23 165 26 245
16 374 -92 731 -313 1043 -78 110 -266 296 -383 380 -179 127 -415 228 -646
277 -113 24 -396 35 -504 20z m520 -50 c409 -83 791 -339 1021 -683 442 -661
358 -1526 -201 -2076 -342 -336 -800 -506 -1269 -471 -757 58 -1365 614 -1493
1364 -27 160 -22 459 11 604 161 719 774 1250 1491 1290 151 9 310 -1 440 -28z"/>
<path d="M2578 3891 c3 -31 0 -56 -7 -65 -14 -17 5 -26 55 -26 28 0 34 4 34
21 0 18 -2 19 -15 5 -17 -16 -45 -11 -45 8 1 6 5 30 9 54 5 23 5 42 0 42 -4 0
-14 2 -22 6 -11 4 -13 -4 -9 -45z"/>
<path d="M2153 3833 c-6 -38 -9 -70 -7 -71 1 -2 11 1 21 7 10 6 13 11 6 11 -7
0 -10 7 -6 16 7 18 49 15 46 -4 -2 -6 6 -12 16 -12 21 0 37 16 23 22 -4 1 -23
24 -41 51 -17 26 -36 47 -40 47 -4 0 -12 -30 -18 -67z m37 1 c0 -8 -4 -14 -10
-14 -5 0 -10 9 -10 21 0 11 5 17 10 14 6 -3 10 -13 10 -21z"/>
<path d="M2835 3842 c-22 -29 -43 -52 -47 -52 -4 0 -8 -4 -8 -10 0 -5 9 -10
20 -10 11 0 19 6 18 13 -2 6 6 12 17 12 15 0 19 -6 18 -22 -2 -13 1 -23 6 -23
5 0 16 -2 24 -5 11 -5 12 5 5 62 -5 37 -10 72 -12 78 -1 5 -20 -14 -41 -43z
m25 -12 c0 -11 -7 -20 -15 -20 -13 0 -13 3 -3 20 7 11 14 20 15 20 2 0 3 -9 3
-20z"/>
<path d="M1896 3804 c-16 -9 -24 -19 -19 -23 16 -9 43 -68 43 -90 0 -18 3 -19
24 -9 22 9 23 13 10 25 -23 23 -16 37 11 19 26 -17 55 -21 55 -8 0 5 -10 13
-22 19 -16 7 -22 18 -22 44 -1 29 -5 34 -26 36 -14 2 -38 -4 -54 -13z m58 -21
c11 -27 -13 -42 -30 -19 -19 27 -18 36 5 36 10 0 22 -8 25 -17z"/>
<path d="M3073 3794 c7 -8 -31 -86 -47 -96 -8 -6 -6 -11 4 -18 22 -15 27 -12
34 15 7 28 15 31 41 12 17 -14 17 -15 -2 -34 l-21 -21 23 -10 c20 -9 23 -8 28
17 3 14 17 39 32 55 14 15 25 29 23 31 -2 1 -14 8 -27 15 -19 10 -22 10 -19
-2 3 -7 1 -21 -4 -31 -7 -14 -13 -15 -28 -7 -24 13 -26 38 -4 47 15 6 15 8 -2
20 -18 13 -43 19 -31 7z"/>
<path d="M1672 3667 c-29 -30 -28 -62 3 -92 29 -30 58 -32 85 -5 29 29 26 74
-6 99 -34 27 -55 26 -82 -2z m65 -19 c45 -43 19 -97 -31 -64 -30 19 -42 52
-26 71 17 20 30 19 57 -7z"/>
<path d="M3307 3643 c-13 -13 -7 -21 13 -16 33 9 24 -21 -19 -60 l-40 -36 25
-16 c18 -12 24 -13 22 -3 -4 16 53 89 64 82 4 -3 8 -15 8 -27 1 -21 1 -21 12
-3 9 17 5 24 -25 53 -37 33 -48 38 -60 26z"/>
<path d="M2305 3619 c-78 -15 -214 -58 -283 -89 -145 -66 -308 -195 -411 -324
-48 -60 -121 -174 -121 -188 0 -18 18 -6 29 19 29 62 111 172 188 249 175 176
387 282 638 319 126 19 185 19 310 0 230 -35 439 -135 605 -291 75 -71 177
-198 211 -266 11 -21 24 -38 29 -38 14 0 -19 62 -80 148 -146 207 -386 372
-637 439 -83 22 -124 26 -263 29 -91 1 -187 -2 -215 -7z"/>
<path d="M1490 3505 c-10 -12 -10 -15 0 -15 6 0 23 -9 37 -19 l24 -20 -57 -3
c-36 -2 -59 -8 -62 -16 -2 -7 0 -11 5 -10 13 4 83 -53 77 -63 -9 -15 13 -10
26 6 10 12 10 15 -2 15 -8 0 -23 9 -33 20 -18 20 -17 20 41 20 l59 1 -42 40
c-24 22 -43 44 -43 49 0 15 -16 12 -30 -5z"/>
<path d="M3496 3443 c-10 -13 -31 -32 -46 -42 -24 -14 -26 -19 -15 -34 13 -17
27 -23 23 -9 -3 9 60 67 80 73 10 3 9 9 -5 21 -17 15 -19 15 -37 -9z"/>
<path d="M1930 2789 c0 -19 4 -21 30 -15 l30 6 0 -273 c0 -230 -2 -276 -16
-295 -8 -12 -22 -22 -30 -22 -8 0 -14 -7 -14 -15 0 -12 16 -15 85 -15 78 0 85
2 85 20 0 16 -7 20 -35 20 l-35 0 0 240 c0 132 2 240 4 240 3 0 93 -119 202
-265 160 -216 201 -265 220 -265 l24 0 0 284 c0 162 4 296 10 311 5 14 21 30
35 35 50 19 26 30 -66 30 -81 0 -90 -2 -87 -17 3 -13 13 -18 36 -17 l32 2 0
-245 c0 -195 -3 -243 -12 -235 -7 6 -96 123 -198 261 l-185 250 -57 1 c-53 0
-58 -2 -58 -21z"/>
<path d="M2640 2789 c0 -18 5 -21 30 -17 l30 5 0 -279 0 -279 -30 -17 c-65
-37 -43 -42 200 -42 l230 0 0 95 c0 74 -3 95 -14 95 -9 0 -15 -16 -19 -47 -4
-37 -12 -54 -36 -75 -29 -26 -37 -28 -119 -28 -48 0 -97 -3 -109 -6 l-23 -6 0
271 c0 173 4 280 11 292 5 11 21 24 35 29 51 20 23 30 -81 30 -100 0 -105 -1
-105 -21z"/>
<path d="M1205 2144 c-27 -19 -51 -38 -53 -44 -2 -5 18 -10 45 -12 l48 -3 -37
-22 c-21 -12 -38 -26 -38 -31 0 -5 24 -12 53 -15 28 -3 60 -8 69 -12 13 -5 15
-2 12 12 -4 15 -13 18 -52 15 l-47 -3 42 27 c24 14 40 30 37 35 -3 5 -26 9
-52 9 l-47 1 35 18 c19 11 38 17 42 14 5 -2 8 5 8 16 0 32 -12 31 -65 -5z"/>
<path d="M3704 2136 c-3 -19 -3 -39 1 -45 12 -20 54 -12 71 14 18 27 44 34 44
11 0 -8 -10 -22 -22 -30 -19 -14 -20 -16 -4 -22 22 -9 27 -3 33 44 5 35 3 41
-18 47 -19 6 -28 1 -51 -26 -23 -27 -30 -31 -40 -20 -11 10 -9 16 9 31 19 15
20 19 7 24 -23 9 -23 9 -30 -28z"/>
<path d="M1456 2058 c27 -90 141 -257 243 -358 143 -142 325 -246 518 -297
130 -34 336 -42 468 -19 361 63 667 292 834 625 18 34 30 66 27 69 -8 8 -9 6
-51 -78 -203 -407 -651 -656 -1102 -610 -263 27 -497 137 -683 320 -83 83
-181 222 -220 312 -24 56 -48 81 -34 36z"/>
<path d="M3647 1954 c-13 -14 -7 -34 11 -34 10 0 27 -6 37 -14 17 -12 14 -14
-33 -25 -51 -13 -80 -41 -42 -41 25 0 90 -31 90 -42 0 -5 5 -6 10 -3 11 7 14
38 3 32 -5 -2 -21 2 -38 9 -32 13 -29 16 34 32 50 12 49 27 -4 47 -25 10 -49
24 -53 32 -5 7 -11 10 -15 7z"/>
<path d="M1350 1872 c0 -11 -66 -42 -90 -42 -25 0 -25 -2 0 -50 22 -42 26 -45
50 -30 13 8 13 10 -2 10 -25 0 -43 36 -22 44 25 10 34 7 28 -9 -7 -17 4 -19
26 -5 13 9 13 11 0 20 -13 9 -13 11 0 20 24 16 33 12 28 -15 -3 -15 -1 -25 7
-25 23 0 24 13 4 51 -19 37 -29 48 -29 31z"/>
<path d="M3502 1676 c-15 -22 -21 -42 -18 -54 20 -61 97 -70 129 -15 18 31 18
32 -2 52 -26 26 -28 26 -42 -1 -9 -17 -9 -20 4 -15 22 8 38 -12 26 -35 -13
-25 -43 -23 -76 6 -23 20 -26 28 -17 43 6 10 21 19 33 21 18 3 20 6 10 18 -16
20 -21 18 -47 -20z"/>
<path d="M1464 1671 c7 -11 -57 -61 -78 -61 -9 0 -16 -3 -16 -8 0 -15 59 -72
74 -72 17 0 39 34 29 44 -3 3 4 6 16 6 12 0 24 7 27 15 6 16 -34 85 -49 85 -5
0 -6 -4 -3 -9z m29 -62 c-7 -7 -20 -8 -30 -5 -17 7 -17 8 1 22 23 17 48 2 29
-17z m-43 -29 c0 -13 -7 -20 -20 -20 -19 0 -27 20 -13 33 13 14 33 6 33 -13z"/>
<path d="M3349 1504 c-16 -15 -14 -19 22 -51 22 -20 39 -42 39 -49 0 -20 14
-17 35 6 14 16 15 20 4 20 -16 0 -74 56 -80 78 -3 9 -8 8 -20 -4z"/>
<path d="M1623 1488 c4 -12 -6 -28 -34 -53 -33 -29 -38 -39 -28 -51 6 -8 16
-14 22 -14 6 0 7 3 4 7 -4 3 -2 12 4 20 9 10 15 10 25 2 7 -6 25 -9 41 -7 23
2 28 8 28 32 0 21 -9 36 -34 55 -25 19 -33 21 -28 9z m42 -54 c0 -12 -8 -20
-22 -22 -26 -4 -28 1 -12 29 13 24 34 20 34 -7z"/>
<path d="M3186 1367 c-41 -33 -33 -61 19 -65 60 -4 70 -9 54 -28 -8 -10 -21
-13 -36 -9 -22 5 -23 4 -12 -17 8 -14 14 -18 17 -10 2 6 10 12 17 12 24 0 45
40 34 62 -8 16 -19 19 -52 16 -32 -2 -42 1 -42 12 0 10 9 14 28 13 29 -2 35 8
14 25 -10 8 -20 5 -41 -11z"/>
<path d="M1803 1285 c-44 -36 -50 -45 -38 -55 12 -10 15 -9 15 3 0 23 14 28
36 13 15 -12 16 -16 5 -29 -10 -13 -9 -17 7 -26 18 -9 20 -6 26 42 4 29 10 62
13 75 7 31 -5 27 -64 -23z m29 -21 c-7 -12 -11 -13 -17 -4 -4 7 -2 16 6 21 18
11 23 4 11 -17z"/>
<path d="M2971 1251 c-19 -10 -30 -20 -25 -22 12 -5 44 -75 44 -95 0 -11 5
-14 18 -9 9 4 29 11 43 17 20 7 25 14 22 29 -3 10 -10 19 -15 19 -5 0 -7 -4
-4 -9 3 -5 -1 -15 -10 -22 -14 -11 -18 -10 -31 6 -12 18 -12 20 7 25 19 5 20
7 6 25 -14 18 -15 18 -16 3 0 -24 -16 -23 -23 2 -6 24 6 34 33 25 15 -5 18 -3
14 9 -8 20 -21 20 -63 -3z"/>
<path d="M2042 1223 c-13 -5 -42 -55 -42 -73 0 -20 49 -60 73 -60 32 0 65 45
41 54 -26 10 -32 7 -27 -13 3 -10 0 -22 -6 -25 -18 -11 -51 13 -51 37 0 53 65
93 77 47 7 -25 23 -26 23 -2 0 28 -53 49 -88 35z"/>
<path d="M2703 1173 c-10 -3 -10 -10 -2 -25 6 -11 11 -39 12 -63 2 -42 3 -44
27 -38 33 8 63 23 72 37 14 20 8 63 -10 79 -18 16 -72 22 -99 10z m75 -15 c18
-18 15 -77 -4 -85 -21 -8 -31 5 -39 55 -6 37 -5 42 12 42 11 0 24 -5 31 -12z"/>
<path d="M2287 1146 c3 -12 0 -40 -6 -61 -6 -22 -9 -40 -8 -41 2 -2 21 -6 43
-10 34 -5 42 -3 48 11 3 10 3 21 0 24 -4 3 -9 0 -11 -6 -3 -7 -13 -13 -24 -13
-14 0 -19 7 -19 27 0 21 3 24 12 15 17 -17 28 -15 28 7 0 14 -5 18 -19 14 -16
-4 -19 -1 -14 16 7 26 28 27 42 4 9 -16 10 -16 11 3 0 16 -8 23 -31 28 -51 10
-57 8 -52 -18z"/>
</g>
</svg>
